<svg id="Capa_1" data-name="Capa 1" xmlns="http://www.w3.org/2000/svg" viewBox="0 0 354.98 121.64"><defs><style>.cls-1{fill:#f32735;}</style></defs><rect class="cls-1" x="8.01" y="11.27" width="38.67" height="38.67" transform="translate(-13.63 28.3) rotate(-45)"/><rect class="cls-1" x="8.01" y="71.78" width="38.67" height="38.67" transform="translate(-56.42 46.02) rotate(-45)"/><rect class="cls-1" x="68.95" y="11.28" width="38.67" height="38.67" transform="translate(4.21 71.39) rotate(-45)"/><rect class="cls-1" x="68.95" y="71.78" width="38.67" height="38.67" transform="translate(-38.57 89.11) rotate(-45)"/><rect class="cls-1" x="42.25" y="51.05" width="11.24" height="18.33"/><path class="cls-1" d="M58.27,50.78V69.62c2.55,2.07,6.37,5.71,9.88,8.34V42.05C63,45.87,62.05,47.59,58.27,50.78Z"/><path d="M152.72,107.77v12.75h-7.17v-3.34a8.89,8.89,0,0,1-3.34,3,9.05,9.05,0,0,1-4.31,1,8,8,0,0,1-5.74-2.07,7.05,7.05,0,0,1-2.08-5.27c0-2.62.88-4.54,2.72-5.73s4.62-1.92,8.45-1.92h4.3v-.47a2.73,2.73,0,0,0-1.44-2.55,8.24,8.24,0,0,0-4.14-.81,19.2,19.2,0,0,0-4.3.48,15.65,15.65,0,0,0-3.67,1.44V98.84a27.93,27.93,0,0,1,4.62-.79,35.39,35.39,0,0,1,4.63-.33c4,0,6.93.8,8.76,2.4S152.72,104.18,152.72,107.77Zm-11,2.71a5.82,5.82,0,0,0-3.35.79,2.38,2.38,0,0,0-1.12,2.24,2.52,2.52,0,0,0,1,2.07,3.7,3.7,0,0,0,2.55.79,4.55,4.55,0,0,0,3.34-1.43,4.92,4.92,0,0,0,1.44-3.67v-.79Z"/><path d="M158.74,111.71V98.16h7.18v10.37a32,32,0,0,0,.16,4,4.07,4.07,0,0,0,.48,1.75,2.73,2.73,0,0,0,.95,1.12,4.17,4.17,0,0,0,1.75.32,4.07,4.07,0,0,0,3.51-1.76,8,8,0,0,0,1.28-4.78v-11h7.17v22.32h-7.17v-3.19a11.09,11.09,0,0,1-3.51,2.87,8,8,0,0,1-3.83,1,7.55,7.55,0,0,1-6.06-2.39C159.38,117.14,158.74,114.82,158.74,111.71Z"/><path d="M198.28,115.86a4,4,0,0,0,3.51-1.6,8.24,8.24,0,0,0,1.28-4.94,7.68,7.68,0,0,0-1.28-4.78,3.92,3.92,0,0,0-3.51-1.76,4.08,4.08,0,0,0-3.51,1.76,8.38,8.38,0,0,0-1.11,4.78,9,9,0,0,0,1.11,4.94A4.16,4.16,0,0,0,198.28,115.86Zm4.79-14.51V89.4h7.17v31.08h-7.17v-3.19a9.45,9.45,0,0,1-3.35,2.87,8.72,8.72,0,0,1-10.85-2.39,13.42,13.42,0,0,1-2.55-8.45,12.85,12.85,0,0,1,2.55-8.28,9.08,9.08,0,0,1,14.2.31Z"/><path d="M216.89,89.4h7v5.89h-7Zm0,8.76h7v22.32h-7Z"/><path d="M240.8,97.68c3.83,0,6.78,1.08,8.93,3.19s3.35,4.86,3.35,8.45c0,3.75-1.11,6.65-3.35,8.77s-5.1,3-8.93,3-6.85-1-9.09-3-3.18-5-3.18-8.77c0-3.59,1-6.42,3.18-8.45A12.73,12.73,0,0,1,240.8,97.68Zm0,5.1a4.27,4.27,0,0,0-3.66,1.76,8.3,8.3,0,0,0-1.12,4.78,8.92,8.92,0,0,0,1.12,4.94A4.17,4.17,0,0,0,240.8,116a3.81,3.81,0,0,0,3.51-1.76,8.24,8.24,0,0,0,1.28-4.94,7.68,7.68,0,0,0-1.28-4.78A3.89,3.89,0,0,0,240.8,102.78Z"/><polygon points="259.26 91.19 284.44 91.19 284.44 94.69 273.92 94.69 273.92 121 269.93 121 269.93 94.69 259.26 94.69 259.26 91.19"/><path d="M298.87,107.77a6.27,6.27,0,0,0-1.76-4.62,5.32,5.32,0,0,0-4.29-1.92,7.07,7.07,0,0,0-4.95,1.76,7.72,7.72,0,0,0-2.07,4.93Zm3.67,1.11v1.76h-16.9a9.47,9.47,0,0,0,2.23,5.9,8.09,8.09,0,0,0,5.74,1.91,17.17,17.17,0,0,0,8.14-2.08v3.51a29,29,0,0,1-4.16,1.28,19,19,0,0,1-4.14.48c-3.62,0-6.5-1-8.61-3s-3-5-3-8.61a12.46,12.46,0,0,1,2.88-8.61,10.65,10.65,0,0,1,8.13-3.19,9,9,0,0,1,7,2.87A11.05,11.05,0,0,1,302.54,108.88Z"/><path d="M326.93,99.48V103a10.82,10.82,0,0,0-3.19-1.28,9.65,9.65,0,0,0-3-.48,7.41,7.41,0,0,0-5.74,2.24,9.54,9.54,0,0,0-1.91,6.37c0,2.79.63,4.9,1.91,6.38a7.3,7.3,0,0,0,5.74,2.23,12.62,12.62,0,0,0,3-.32,15.32,15.32,0,0,0,3.19-1.43v3.5a17,17,0,0,1-3.19,1,12.57,12.57,0,0,1-3.51.48,10.53,10.53,0,0,1-8.13-3.19c-1.91-2.11-2.87-5-2.87-8.61s1-6.41,3-8.45a10.91,10.91,0,0,1,8.29-3.19,17.6,17.6,0,0,1,3.19.32A26.13,26.13,0,0,1,326.93,99.48Z"/><path d="M354.11,107.45V121h-3.67V107.61a7,7,0,0,0-1.27-4.62,4.52,4.52,0,0,0-3.66-1.6,6.13,6.13,0,0,0-4.79,1.91,6.87,6.87,0,0,0-1.75,5.1V121H335.3V89.92H339v12.27a9.37,9.37,0,0,1,3.18-3,8.48,8.48,0,0,1,4.15-1,6.91,6.91,0,0,1,5.74,2.4C353.39,102.11,354.11,104.38,354.11,107.45Z"/><path d="M293.81,80.79c1.23-2.68,4.58-12.84,6.06-16.67h26.51l6,16.67,22.63,0L323,.24h-20L271.1,80.83Zm19.25-53.72,8.29,22.67-16.34,0Z"/><polygon points="129.93 80.83 191.55 80.83 191.55 61.9 154.8 61.9 154.8 0 129.93 0 129.93 80.83"/><path d="M196.36,0V80.83h39.51l4.81-.24,4.58-.28.25-.24.75-.24c14.15-1.79,23-10.92,27.9-23.07,2.55-7.7,2.92-14.28,2.27-22.37s-3.22-16.1-8.84-21.72c-8.37-8.36-15-11.52-28.66-12.67Zm24.32,62.22V18.57c18.81-1,32.88,3,32.44,22.52S235.9,62.78,220.68,62.22Z"/></svg>