<?xml version="1.0" encoding="utf-8"?>
<!-- Generator: Adobe Illustrator 27.3.1, SVG Export Plug-In . SVG Version: 6.00 Build 0)  -->
<svg version="1.0" id="Слой_1" xmlns="http://www.w3.org/2000/svg" xmlns:xlink="http://www.w3.org/1999/xlink" x="0px" y="0px"
	 viewBox="0 0 595.3 120.8" style="enable-background:new 0 0 595.3 120.8;" xml:space="preserve">
<style type="text/css">
	.st0{fill-rule:evenodd;clip-rule:evenodd;fill:#EE741D;}
	.st1{fill:#5B5B5B;}
</style>
<g id="Слой_x0020_1">
	<path class="st0" d="M89.7,97.9c-0.9,0.3-1.8,0.6-2.6,0.9c-5.7,2.2-13.9,7.1-19.8,11.9c6-12.8,10.9-36.2,10.9-50
		c0-2-0.1-4.2-0.3-6.5c-1.3,1.9-2.5,3.8-3.5,5.5C69,69,63.2,85,60.4,98.3c-2.8-13.2-8.6-29.2-14-38.6c-1-1.7-2.2-3.5-3.5-5.5
		c-0.2,2.3-0.3,4.5-0.3,6.5c0,13.8,4.9,37.3,10.9,50c-5.7-4.7-13.9-9.7-19.6-11.9c-0.8-0.3-1.6-0.6-2.6-0.9
		C55.1,128.2,65.6,128.7,89.7,97.9L89.7,97.9z M43.1,54.2C31.8,37.9,9.9,16.2,1.8,17.7c-6,7,4.6,43.4,14,59.7
		c3.5,6,9.2,13.5,15.6,20.5C21,94.7,3.2,92.8,0.1,96.4c-0.1,5.1,17.1,17,26.8,20.7c6.2,2.4,16.8,4.2,24.6,4.3c6.3,0.1,11.1,0,17.4,0
		c7.8,0,18.9-1.9,25.2-4.3c9.7-3.7,27-15.7,26.8-20.7c-3-3.6-20.8-1.7-31.3,1.5c6.3-7,12.1-14.5,15.6-20.5c9.4-16.3,20-52.8,14-59.7
		c-8.1-1.5-30,20.2-41.3,36.5C76.3,34.5,68.2,4.7,60.4,2C52.8,4.7,44.7,34.5,43.1,54.2L43.1,54.2z"/>
	<path class="st1" d="M577.4,32.1l-23.7,73.7h41.6l-4.9,15.1h-58.5l28.5-88.8L577.4,32.1L577.4,32.1L577.4,32.1z M499.1,46.3
		l-7.4,22.9h41.6l-4,12.4h-41.6l-8.1,25.1h44.3l-4.6,14.2h-61.2l28.5-88.8h61L543,46.3L499.1,46.3L499.1,46.3z M448.6,47.2
		l-23.7,73.7H408l23.7-73.7H406l4.9-15.1H480l-4.9,15.1H448.6L448.6,47.2L448.6,47.2z M395.9,58h-16.5c0.2-0.8,0.3-1.4,0.4-1.8
		c1.2-5,1.1-8.1-0.3-9.4s-5.5-1.9-12.3-1.9c-8,0-13.4,0.7-16.4,2.2c-2.9,1.5-5.1,4.6-6.7,9.3c-1.8,5.6-1.9,9-0.2,10.1
		c1.6,1.1,7.9,2,18.9,2.6c13,0.7,20.9,2.6,23.9,5.7c2.9,3,2.8,9.4-0.3,18.9c-3.8,11.8-8.5,19.4-14.2,22.9
		c-5.7,3.4-16.3,5.2-31.8,5.2c-14,0-22.7-1.7-26.2-5.1c-3.5-3.4-3.6-10.2-0.3-20.5l1-3.3h16.4l-0.5,1.9c-2,6.2-2.1,10-0.4,11.4
		s7.4,2.1,17.1,2.1c7.6,0,12.6-0.8,15.2-2.4c2.6-1.6,4.8-5.3,6.7-11.1c1.4-4.3,1.5-7.2,0.4-8.6c-1.1-1.4-4.3-2.3-9.4-2.6l-9.1-0.6
		c-13.8-0.8-22.2-2.8-25.1-5.8c-2.9-3.1-2.7-9.7,0.5-19.9c3.3-10.4,7.9-17.3,13.7-20.7c5.8-3.4,15.8-5.2,29.9-5.2
		c13.3,0,21.9,1.6,25.5,4.8c3.6,3.2,3.9,9.4,1,18.5L395.9,58L395.9,58L395.9,58z M254.9,76.8h24.2c5.8,0,9.9-1,12.5-3.1
		s4.8-6.2,6.8-12.4c2-6.3,2.5-10.4,1.5-12.3c-1-1.8-4.3-2.8-9.8-2.8h-25.4L254.9,76.8L254.9,76.8z M223.9,120.9l28.5-88.8h43.8
		c10.9,0,17.8,1.9,20.7,5.7c2.9,3.8,2.8,10.6-0.4,20.5c-2.9,9-5.9,15.1-9,18.4c-3.1,3.3-8.1,5.6-14.9,6.8l-0.2,0.6
		c9.6,0.6,12.7,6.4,9.2,17.3l-6.3,19.6h-16.9l5.2-16.2c2.9-9.2-0.1-13.7-9.1-13.7h-24.3l-9.6,29.9L223.9,120.9L223.9,120.9
		L223.9,120.9z M198.6,91.4l-0.5-46.2l-29.9,46.2H198.6L198.6,91.4z M198.5,103.9h-38.3l-11,17.1h-17.8l58.1-88.8h25.3l1.5,88.8
		h-17.5L198.5,103.9L198.5,103.9z"/>
</g>
</svg>
