<?xml version="1.0" encoding="utf-8"?>
<!-- Generator: Adobe Illustrator 24.1.1, SVG Export Plug-In . SVG Version: 6.00 Build 0)  -->
<svg version="1.1" xmlns="http://www.w3.org/2000/svg" xmlns:xlink="http://www.w3.org/1999/xlink" x="0px" y="0px"
	 viewBox="0 0 652 283.5" style="enable-background:new 0 0 652 283.5;" xml:space="preserve">
<style type="text/css">
	.st0{fill:#E30613;}
</style>
<g id="Guides">
</g>
<g id="Layer_1">
	<g>
		<path d="M399.1,109.8v10.7c9-10.1,16-11.3,28.8-12.3v28.3H427c-16.5,0-27.7,4-27.7,21.6v64.1h-31.9V109.8H399.1z M334.8,212.2
			c-6.7,7.9-17.5,12.2-32.3,11.7c-26.9-0.7-43.1-10.7-45.4-32.1c-1-13.7-0.7-27.5-0.5-41.5c0.3-22.2,12.8-41.6,45.9-42.5
			c38.9-1.1,47,34.8,44,63.2h-57.6c0.2,6.9-0.3,14.1,1.2,20.9c1.3,6,4.1,10.2,10.6,11.2c10.5,0.8,13.9-6.2,13.9-18.7v-0.9H345
			C344.8,194.4,341.9,203.7,334.8,212.2z M290.4,136c-1.6,5.1-1.5,12-1.5,17.4h25.9c0.1-10.2,1.6-25.5-13.4-25.5
			C295,127.8,292,131.1,290.4,136z M230,108.8l15.9,0.3l-1.1,20.2h-15.1l0.6,52c0.2,12.7-2.4,21.3,15.5,19.6l1-0.1l-0.1,21.2
			c-6.8,1.3-43.3,4.1-46.2-13.5c-1-5.9-1.2-14.9-1.3-27.6l-0.3-51.4H186l0.3-20.8h12.2V93.3l31.1-15.8L230,108.8z M119.4,108.8
			l0,9.9c21.1-21.9,55-10.8,55,12.5v91h-32.8l0.1-84.8c0-13.2-22.3-12.9-22.3,0l-0.1,84.8H87.5V108.8H119.4z M63.5,108.8v113.7H30.4
			V108.8H63.5z"/>
		<path class="st0" d="M458.6,222.1V110.5l1.8-0.3l32.9,111.9H458.6z M557.7,222.1H523l32.9-111.9l1.8,0.3V222.1z M29.1,65.4V46.7
			l595.3,0.4l-0.4,175l-36.9,0V66l-45.2,0.1l-33.4,108.7L476,65.4H29.1z"/>
	</g>
</g>
</svg>
