<?xml version="1.0" encoding="utf-8"?>
<!-- Generator: Adobe Illustrator 24.1.1, SVG Export Plug-In . SVG Version: 6.00 Build 0)  -->
<svg version="1.1" id="Слой_1" xmlns="http://www.w3.org/2000/svg" xmlns:xlink="http://www.w3.org/1999/xlink" x="0px" y="0px"
	 viewBox="0 0 652 283.5" style="enable-background:new 0 0 652 283.5;" xml:space="preserve">
<style type="text/css">
	.st0{fill-rule:evenodd;clip-rule:evenodd;fill:#EE741D;}
	.st1{fill:#5B5B5B;}
</style>
<g id="Слой_x0020_1">
	<path class="st0" d="M122.1,164.9c-0.9,0.3-1.8,0.6-2.6,0.9c-5.7,2.2-13.9,7.1-19.8,11.9c6-12.8,10.9-36.2,10.9-50
		c0-2-0.1-4.2-0.3-6.5c-1.3,1.9-2.5,3.8-3.5,5.5c-5.4,9.3-11.2,25.3-14,38.6c-2.8-13.2-8.6-29.2-14-38.6c-1-1.7-2.2-3.5-3.5-5.5
		c-0.2,2.3-0.3,4.5-0.3,6.5c0,13.8,4.9,37.3,10.9,50C80.2,173,72,168,66.3,165.8c-0.8-0.3-1.6-0.6-2.6-0.9
		C87.5,195.2,98,195.7,122.1,164.9C122.1,164.9,122.1,164.9,122.1,164.9z M75.5,121.2c-11.3-16.3-33.2-38-41.3-36.5
		c-6,7,4.6,43.4,14,59.7c3.5,6,9.2,13.5,15.6,20.5c-10.4-3.2-28.2-5.1-31.3-1.5c-0.1,5.1,17.1,17,26.8,20.7
		c6.2,2.4,16.8,4.2,24.6,4.3c6.3,0.1,11.1,0,17.4,0c7.8,0,18.9-1.9,25.2-4.3c9.7-3.7,27-15.7,26.8-20.7c-3-3.6-20.8-1.7-31.3,1.5
		c6.3-7,12.1-14.5,15.6-20.5c9.4-16.3,20-52.8,14-59.7c-8.1-1.5-30,20.2-41.3,36.5c-1.6-19.7-9.7-49.5-17.5-52.2
		C85.2,71.7,77.1,101.5,75.5,121.2C75.5,121.2,75.5,121.2,75.5,121.2z"/>
	<path class="st1" d="M609.8,99.1l-23.7,73.7h41.6l-4.9,15.1h-58.5l28.5-88.8H609.8L609.8,99.1L609.8,99.1z M531.5,113.3l-7.4,22.9
		h41.6l-4,12.4h-41.6l-8.1,25.1h44.3l-4.6,14.2h-61.2l28.5-88.8H580l-4.6,14.2H531.5L531.5,113.3z M481,114.2l-23.7,73.7h-16.9
		l23.7-73.7h-25.7l4.9-15.1h69.1l-4.9,15.1H481L481,114.2L481,114.2z M428.3,125h-16.5c0.2-0.8,0.3-1.4,0.4-1.8
		c1.2-5,1.1-8.1-0.3-9.4c-1.4-1.3-5.5-1.9-12.3-1.9c-8,0-13.4,0.7-16.4,2.2c-2.9,1.5-5.1,4.6-6.7,9.3c-1.8,5.6-1.9,9-0.2,10.1
		c1.6,1.1,7.9,2,18.9,2.6c13,0.7,20.9,2.6,23.9,5.7c2.9,3,2.8,9.4-0.3,18.9c-3.8,11.8-8.5,19.4-14.2,22.9
		c-5.7,3.4-16.3,5.2-31.8,5.2c-14,0-22.7-1.7-26.2-5.1c-3.5-3.4-3.6-10.2-0.3-20.5l1-3.3h16.4l-0.5,1.9c-2,6.2-2.1,10-0.4,11.4
		c1.7,1.4,7.4,2.1,17.1,2.1c7.6,0,12.6-0.8,15.2-2.4c2.6-1.6,4.8-5.3,6.7-11.1c1.4-4.3,1.5-7.2,0.4-8.6c-1.1-1.4-4.3-2.3-9.4-2.6
		l-9.1-0.6c-13.8-0.8-22.2-2.8-25.1-5.8c-2.9-3.1-2.7-9.7,0.5-19.9c3.3-10.4,7.9-17.3,13.7-20.7c5.8-3.4,15.8-5.2,29.9-5.2
		c13.3,0,21.9,1.6,25.5,4.8c3.6,3.2,3.9,9.4,1,18.5L428.3,125L428.3,125L428.3,125z M287.3,143.8h24.2c5.8,0,9.9-1,12.5-3.1
		c2.6-2.1,4.8-6.2,6.8-12.4c2-6.3,2.5-10.4,1.5-12.3c-1-1.8-4.3-2.8-9.8-2.8h-25.4L287.3,143.8C287.3,143.8,287.3,143.8,287.3,143.8
		z M256.3,187.9l28.5-88.8h43.8c10.9,0,17.8,1.9,20.7,5.7c2.9,3.8,2.8,10.6-0.4,20.5c-2.9,9-5.9,15.1-9,18.4
		c-3.1,3.3-8.1,5.6-14.9,6.8l-0.2,0.6c9.6,0.6,12.7,6.4,9.2,17.3l-6.3,19.6h-16.9l5.2-16.2c2.9-9.2-0.1-13.7-9.1-13.7h-24.3
		l-9.6,29.9L256.3,187.9L256.3,187.9L256.3,187.9z M231,158.4l-0.5-46.2l-29.9,46.2H231L231,158.4z M230.9,170.9h-38.3l-11,17.1
		h-17.8l58.1-88.8h25.3l1.5,88.8h-17.5L230.9,170.9C230.9,170.9,230.9,170.9,230.9,170.9z"/>
</g>
</svg>
