<?xml version="1.0" encoding="utf-8"?>
<!-- Generator: Adobe Illustrator 24.1.1, SVG Export Plug-In . SVG Version: 6.00 Build 0)  -->
<svg version="1.1" id="Слой_1" xmlns="http://www.w3.org/2000/svg" xmlns:xlink="http://www.w3.org/1999/xlink" x="0px" y="0px"
	 viewBox="0 0 652 283.5" style="enable-background:new 0 0 652 283.5;" xml:space="preserve">
<style type="text/css">
	.st0{fill:#56565A;}
	.st1{fill-rule:evenodd;clip-rule:evenodd;fill:#E12726;}
</style>
<g id="Направляющие_для_монтажной_области_00000070111590205414391800000001814691568331949225_">
</g>
<g id="Направляющие_для_монтажной_области_00000037672142154831313330000014914664367367843724_">
</g>
<g id="Направляющие_для_монтажной_области_00000098914367789290322540000012902362130515014576_">
</g>
<g id="Направляющие_для_монтажной_области_00000177468513899675726330000008621807612198576572_">
</g>
<g id="Направляющие_для_монтажной_области">
</g>
<g id="Layer_1">
</g>
<g id="Layer_2">
	<g>
		<g>
			<g>
				<path class="st0" d="M329.5,196.8L286,92h-34.5l-44.2,104.8h29.5l8.4-25.3h46.3l8.4,25.3H329.5z M253.6,154.7l14.8-44.7
					l14.8,44.7H253.6z"/>
				<path class="st0" d="M630.6,196.8L587.1,92h-34.5l-44.2,104.8H538l8.4-25.3h46.3l8.4,25.3H630.6z M554.8,154.7l14.8-44.7
					l14.8,44.7H554.8z"/>
				<g>
					<polygon class="st0" points="364.8,115 364.8,111.6 364.8,92 338.5,92 338.5,197 364.8,197 364.8,157.6 407.4,157.6 
						407.4,137.9 364.8,137.9 					"/>
					<rect x="377.9" y="92" class="st0" width="49.2" height="19.7"/>
				</g>
				<g>
					<polygon class="st0" points="463.2,118.5 463.2,111.6 463.2,92 437,92 437,197 463.2,197 463.2,157.6 505.9,157.6 505.9,137.9 
						463.2,137.9 					"/>
					<rect x="476.4" y="92" class="st0" width="49.2" height="19.7"/>
				</g>
			</g>
		</g>
		<path class="st1" d="M107.5,65.4c0,0,1.3,0.1,1.9,0.2c40.2,4,71.7,37.6,71.7,77.7c0,43.9-34.7,79.6-79.6,79.6l-4.6-0.2
			c-39.1-2.4-60.9-31.5-61.5-60.7c-0.6-30.4,20.9-58.6,55.1-62.9V113c-24.3,3.7-41.6,23.9-41.6,47.9c0,26.5,21.6,47.8,48.1,47.8
			s47.9-22.1,48.1-46.2c0-0.1-0.1-43.2-0.1-43.2h17.6c-8.1-18.3-19.8-28.5-34.8-35.2v79.4c0,17.1-13.8,30.4-30.9,30.4
			s-30.8-14.5-30.8-30.2c0-17.8,13.7-31.5,30.8-31.5c3.7,0,7.2,0.6,10.6,1.9L107.5,65.4z"/>
	</g>
</g>
</svg>
